<svg id="Capa_1" enable-background="new 0 0 512.003 512.003" height="512" viewBox="0 0 512.003 512.003" width="512" xmlns="http://www.w3.org/2000/svg"><circle cx="316.001" cy="136.001" r="10"/><circle cx="256.001" cy="106.001" r="10"/><circle cx="196.001" cy="136.001" r="10"/><circle cx="256.002" cy="502" r="10"/><path d="m30.001 492.001h-20c-5.523 0-10 4.477-10 10s4.477 10 10 10h201c5.523 0 10-4.477 10-10s-4.477-10-10-10h-35v-82c0-44.449 36.636-82 80-82s80 37.551 80 82v82h-35c-5.523 0-10 4.477-10 10s4.477 10 10 10h201c5.523 0 10-4.477 10-10s-4.477-10-10-10h-20v-326.842l14.644 9.286c4.674 2.964 10.849 1.565 13.801-3.089 2.958-4.664 1.575-10.843-3.089-13.801l-246-156c-3.27-2.072-7.441-2.072-10.711 0l-246 156c-4.664 2.958-6.047 9.137-3.089 13.801 2.958 4.665 9.138 6.046 13.801 3.089l14.644-9.286v326.842zm157.271-256c5.286 20.618 26.274 34.017 47.895 28.945 14.021-3.292 27.65-3.292 41.673.001 21.592 5.059 42.597-8.312 47.89-28.946h137.272v72h-412v-72zm18.729-10c0-11.028 8.972-20 20-20 5.523 0 10-4.477 10-10 0-11.028 8.972-20 20-20s20 8.972 20 20c0 5.523 4.477 10 10 10 11.028 0 20 8.972 20 20 0 12.873-12.02 22.422-24.594 19.475-16.857-3.958-33.952-3.958-50.811 0-12.589 2.952-24.595-6.602-24.595-19.475zm-156 266v-72h106v72zm106.486-92h-106.486v-72.01h146.912c-22.254 16.902-37.566 42.648-40.426 72.01zm158.602-72h146.912v72h-106.485c-2.856-29.313-18.133-55.078-40.427-72zm40.912 92h106v72h-106zm-100-398.159 206 130.634v63.525h-137.271c-3.714-14.372-15.231-25.639-29.746-28.983-4.088-17.745-20.015-31.017-38.983-31.017s-34.895 13.272-38.983 31.017c-14.515 3.344-26.032 14.611-29.746 28.983h-137.271v-63.525z"/></svg>